<svg width="1000" height="1000" viewBox="0 0 1000 1000" fill="none" xmlns="http://www.w3.org/2000/svg">
<path d="M655 950H123C100.909 950 83 932.091 83 910V211C83 188.909 100.909 171 123 171H367.816C378.648 171 389.017 175.393 396.552 183.175L519.192 309.828L684.709 493.427C691.334 500.775 695 510.318 695 520.211V910C695 932.091 677.091 950 655 950Z" stroke="black" stroke-width="20"/>
<path fill-rule="evenodd" clip-rule="evenodd" d="M344 59H876C892.569 59 906 72.4314 906 89V788C906 804.569 892.569 818 876 818H705V838H876C903.614 838 926 815.614 926 788V89C926 61.3858 903.614 39 876 39H344C316.386 39 294 61.3857 294 89V161H314V89C314 72.4314 327.431 59 344 59Z" fill="black"/>
</svg>
