<svg width="1000" height="1000" viewBox="0 0 1000 1000" fill="none" xmlns="http://www.w3.org/2000/svg">
<path d="M655 935H123C109.193 935 98 923.807 98 910V211C98 197.193 109.193 186 123 186H367.816C374.586 186 381.067 188.746 385.776 193.609L508.23 320.071L673.568 503.471C677.709 508.064 680 514.028 680 520.211V910C680 923.807 668.807 935 655 935Z" stroke="black" stroke-width="50"/>
<path fill-rule="evenodd" clip-rule="evenodd" d="M344 89H876V788H705V838H876C903.614 838 926 815.614 926 788V89C926 61.3858 903.614 39 876 39H344C316.386 39 294 61.3857 294 89V161H344V89ZM876.062 787.998C876.064 787.997 876.063 787.997 876.06 787.998L876.062 787.998Z" fill="black"/>
</svg>
